<?xml version="1.0" encoding="UTF-8" standalone="no"?>
<!-- Created with Inkscape (http://www.inkscape.org/) -->

<svg
   xmlns:dc="http://purl.org/dc/elements/1.1/"
   xmlns:cc="http://creativecommons.org/ns#"
   xmlns:rdf="http://www.w3.org/1999/02/22-rdf-syntax-ns#"
   xmlns:svg="http://www.w3.org/2000/svg"
   xmlns="http://www.w3.org/2000/svg"
   xmlns:xlink="http://www.w3.org/1999/xlink"
   xmlns:sodipodi="http://sodipodi.sourceforge.net/DTD/sodipodi-0.dtd"
   xmlns:inkscape="http://www.inkscape.org/namespaces/inkscape"
   width="100"
   height="100"
   viewBox="0 0 99.999997 99.999997"
   id="svg2"
   version="1.1"
   inkscape:version="0.91 r13725"
   sodipodi:docname="nucleargen.svg">
  <defs
     id="defs4">
    <linearGradient
       inkscape:collect="always"
       id="linearGradient6334">
      <stop
         style="stop-color:#ececec;stop-opacity:1;"
         offset="0"
         id="stop6336" />
      <stop
         style="stop-color:#ececec;stop-opacity:0;"
         offset="1"
         id="stop6338" />
    </linearGradient>
    <linearGradient
       inkscape:collect="always"
       id="linearGradient6326">
      <stop
         style="stop-color:#ececec;stop-opacity:1;"
         offset="0"
         id="stop6328" />
      <stop
         style="stop-color:#ececec;stop-opacity:0;"
         offset="1"
         id="stop6330" />
    </linearGradient>
    <linearGradient
       inkscape:collect="always"
       xlink:href="#linearGradient6326"
       id="linearGradient6332"
       x1="22.138568"
       y1="976.59739"
       x2="71.925754"
       y2="976.59739"
       gradientUnits="userSpaceOnUse" />
    <linearGradient
       inkscape:collect="always"
       xlink:href="#linearGradient6334"
       id="linearGradient6340"
       x1="22.138568"
       y1="976.59739"
       x2="71.925754"
       y2="976.59739"
       gradientUnits="userSpaceOnUse" />
  </defs>
  <sodipodi:namedview
     id="base"
     pagecolor="#ffffff"
     bordercolor="#666666"
     borderopacity="1.0"
     inkscape:pageopacity="0.0"
     inkscape:pageshadow="2"
     inkscape:zoom="3.3902128"
     inkscape:cx="12.682734"
     inkscape:cy="52.511552"
     inkscape:document-units="px"
     inkscape:current-layer="layer1"
     showgrid="false"
     inkscape:snap-bbox="true"
     inkscape:bbox-paths="false"
     inkscape:bbox-nodes="false"
     inkscape:snap-bbox-edge-midpoints="false"
     inkscape:snap-bbox-midpoints="true"
     inkscape:object-nodes="true"
     units="px"
     inkscape:window-width="1366"
     inkscape:window-height="722"
     inkscape:window-x="0"
     inkscape:window-y="46"
     inkscape:window-maximized="0" />
  <metadata
     id="metadata7">
    <rdf:RDF>
      <cc:Work
         rdf:about="">
        <dc:format>image/svg+xml</dc:format>
        <dc:type
           rdf:resource="http://purl.org/dc/dcmitype/StillImage" />
        <dc:title />
      </cc:Work>
    </rdf:RDF>
  </metadata>
  <g
     inkscape:label="Ebene 1"
     inkscape:groupmode="layer"
     id="layer1"
     transform="translate(0,-952.36223)">
    <rect
       style="fill:#2b1100;stroke:#800000;stroke-width:9.4;stroke-opacity:1;stroke-miterlimit:4;stroke-dasharray:none;stroke-linejoin:round;stroke-dashoffset:2.7"
       id="rect3336"
       width="99.109985"
       height="99.109985"
       x="0.44500673"
       y="952.80725" />
    <rect
       style="opacity:1;fill:#999999;fill-opacity:1;stroke:#6c5357;stroke-width:0;stroke-miterlimit:4;stroke-dasharray:none;stroke-dashoffset:0;stroke-opacity:1"
       id="rect4825"
       width="34.999989"
       height="19.99999"
       x="15.000005"
       y="1012.3623" />
    <circle
       style="opacity:1;fill:#999999;fill-opacity:1;stroke:#6c5357;stroke-width:0;stroke-miterlimit:4;stroke-dasharray:none;stroke-dashoffset:0;stroke-opacity:1"
       id="path4831"
       cx="32.517246"
       cy="1012.5449"
       r="17.499996" />
    <path
       style="opacity:1;fill:#999999;fill-opacity:1;stroke:#6c5357;stroke-width:0;stroke-miterlimit:4;stroke-dasharray:none;stroke-dashoffset:0;stroke-opacity:1"
       d="m 57.223544,990.12427 30.676542,0 c -8.508071,22.06073 -8.520042,22.14973 0,42.77013 l -30.676542,0 c 10.079791,-20.9395 10.027168,-21.2578 0,-42.77013 z"
       id="rect4835"
       inkscape:connector-curvature="0"
       sodipodi:nodetypes="ccccc" />
    <path
       style="fill-rule:evenodd;stroke:url(#linearGradient6332);stroke-width:4.9;stroke-linecap:butt;stroke-linejoin:miter;stroke-opacity:1;fill-opacity:1;fill:url(#linearGradient6340);stroke-miterlimit:4;stroke-dasharray:none"
       d="m 69.317183,984.51988 c -1.179867,0 -2.359734,0 -3.539601,0 -0.393289,0 -0.790531,0.0556 -1.179867,0 -0.244948,-0.035 -1.206801,-0.38891 -1.474834,-0.58993 -0.222477,-0.16686 -0.367455,-0.42308 -0.589933,-0.58994 -0.175884,-0.13191 -0.45802,-0.11908 -0.589934,-0.29496 -0.186553,-0.24874 -0.209549,-0.58594 -0.294966,-0.8849 -0.438047,-1.53317 -0.294967,-1.0932 -0.294967,-2.94967 0,-1.37651 0,-2.75302 0,-4.12954 0,-0.11533 -0.04241,-1.93754 0,-2.06476 0.04397,-0.13192 0.16007,-0.26124 0.294967,-0.29497 0.211974,-0.053 1.444564,0 1.7698,0 0.294967,0 0.589934,0 0.8849,0 0.393289,0 0.811619,-0.13809 1.179867,0 1.346056,0.50477 2.005858,2.23532 2.654701,3.24464 1.876142,2.91844 0.604224,0.61851 2.359734,4.12953 0.319788,0.63958 0.740228,1.34141 0.8849,2.06477 0.03856,0.19282 0,0.39329 0,0.58993 0,0.0983 0,0.19665 0,0.29497 0,0.0983 0.09328,0.26387 0,0.29496 -0.27983,0.0933 -0.589933,0 -0.8849,0 -0.393289,0 -0.786578,0 -1.179867,0 -0.8849,0 -1.769801,0 -2.654701,0 -0.294967,0 -0.595661,0.0579 -0.8849,0 -1.186982,-0.23739 -0.135524,-0.21524 -0.8849,-0.58993 -0.08794,-0.044 -0.225443,0.0695 -0.294967,0 -0.06952,-0.0695 0.04397,-0.20702 0,-0.29497 -0.434015,-0.86803 -0.294967,0.45788 -0.294967,-0.8849 0,-0.29496 -0.04849,-0.59394 0,-0.8849 0.242052,-1.45231 1.020044,-1.84148 2.359734,-2.06476 0.193969,-0.0323 0.393289,0 0.589934,0 0.8849,0 1.7698,0 2.6547,0 0.09832,0 0.225443,-0.0695 0.294967,0 0.06952,0.0695 0,0.19664 0,0.29496 0,0.39329 0,0.78658 0,1.17987 0,0.0983 0.08431,0.24438 0,0.29497 -0.454027,0.27241 -0.952556,0.50288 -1.474834,0.58993 -0.678891,0.11315 -1.376511,0 -2.064767,0 -3.244634,0 -6.489268,0 -9.733902,0 -1.179867,0 -2.359734,0 -3.539601,0 -0.09832,0 -0.196644,0 -0.294967,0 -0.09832,0 -0.263874,0.0933 -0.294966,0 -0.09328,-0.27983 0,-0.58993 0,-0.8849 0,-0.18333 -0.155461,-2.02191 0.294966,-2.35973 1.493401,-1.12005 4.274674,-2.36676 6.194302,-2.65471 0.972344,-0.14585 1.966445,0 2.949667,0 0.589934,0 1.179867,0 1.769801,0 0.196644,0 0.426315,-0.10907 0.589933,0 0.182931,0.12196 0.213315,0.38581 0.294967,0.58994 0.115473,0.28868 0.23399,0.58001 0.294967,0.8849 0.03398,0.1699 0.04065,1.60721 0,1.7698 -0.05332,0.21329 -0.09406,0.50064 -0.294967,0.58993 -0.740906,0.32929 -1.562835,0.44052 -2.359734,0.58994 -2.02845,0.38033 -2.447629,0.29496 -4.424501,0.29496 -0.688256,0 -1.376512,0 -2.064767,0 -0.09832,0 -0.196645,0 -0.294967,0 -0.09832,0 -0.27112,0.0954 -0.294967,0 -0.09539,-0.38154 0,-0.78658 0,-1.17986 0,-0.29497 0,-0.58994 0,-0.8849 0,-0.29497 -0.146344,-0.6288 0,-0.8849 0.77003,-1.34756 2.869433,-2.07972 4.129535,-2.35974 0.767847,-0.17063 1.573155,0 2.359733,0 0.110813,0 1.467473,-0.007 1.474834,0 0.42688,0.42688 0.294967,0.9428 0.294967,1.47484 0,0.39328 0,0.78657 0,1.17986 0,0.19665 0,0.39329 0,0.58994 0,0.0983 0.08794,0.25099 0,0.29496 -0.362595,0.1813 -0.782347,0.21546 -1.179867,0.29497 -2.040576,0.40811 -1.641386,0.29497 -3.834568,0.29497 -1.573156,0 -3.146311,0 -4.719467,0 -0.09832,0 -0.196645,0 -0.294967,0 -0.09832,0 -0.27112,0.0954 -0.294967,0 -0.09539,-0.38155 0,-0.78658 0,-1.17987 0,-0.39329 -0.113011,-0.80317 0,-1.17987 0.509466,-1.69822 1.080538,-2.16258 2.654701,-2.94967 0.556194,-0.27809 1.156417,-0.4877 1.7698,-0.58993 0.581907,-0.097 1.179867,0 1.769801,0 0.294966,0 0.589933,0 0.8849,0 0.09832,0 0.196644,0 0.294967,0 0.09832,0 0.225442,-0.0695 0.294966,0 0.06952,0.0695 0,0.19665 0,0.29497 0,0.19664 0,0.39329 0,0.58993 0,0.29497 0.116193,0.61378 0,0.8849 -0.0625,0.14584 -1.096886,1.54303 -1.474833,1.7698 -0.266614,0.15997 -0.589934,0.19665 -0.884901,0.29497 -0.919026,0.30634 -1.291903,0.47128 -2.359734,0.58993 -0.61347,0.0682 -1.971923,0 -2.6547,0 -0.294967,0 -0.589934,0 -0.8849,0 -0.09832,0 -0.250996,0.0879 -0.294967,0 -0.08794,-0.17588 0,-0.39329 0,-0.58993 0,-0.29497 0,-0.58993 0,-0.8849 0,-0.19665 0,-0.39329 0,-0.58994 0,-0.39328 -0.154924,-0.81837 0,-1.17986 0.152464,-0.35575 1.373296,-1.31623 1.7698,-1.47484 0.18258,-0.073 0.393289,0 0.589934,0 0.196644,0 0.393289,0 0.589933,0 0.09832,0 0.196645,0 0.294967,0 0.09832,0 0.225442,-0.0695 0.294967,0 0.06952,0.0695 0,0.19665 0,0.29497 0,0.78658 0.292127,1.62942 0,2.35973 -0.940591,2.35148 -3.60904,5.06404 -5.604368,6.48927 -0.894518,0.63894 -1.945136,1.02838 -2.949668,1.47484 -0.767661,0.34118 -1.534056,0.73008 -2.359733,0.8849 -0.773106,0.14495 -1.573156,0 -2.359734,0 -1.081545,0 -2.16309,0 -3.244634,0 -0.983223,0 -1.966445,0 -2.949668,0 -0.491611,0 -0.983222,0 -1.474833,0 -0.196645,0 -0.426316,0.10908 -0.589934,0 -0.182931,-0.12196 -0.196644,-0.39329 -0.294967,-0.58994 -0.470851,-0.9417 -0.294966,-0.37007 -0.294966,-1.7698 0,-0.49161 0,-0.98322 0,-1.47483 0,-0.39329 -0.195126,-0.8384 0,-1.17987 0.243907,-0.42684 0.770821,-0.6122 1.179867,-0.8849 1.340063,-0.89337 1.655487,-1.04143 3.244634,-1.47483 0.483681,-0.13191 0.974963,-0.25652 1.474833,-0.29497 0.784261,-0.0603 1.573156,0 2.359734,0 0.8849,0 1.769801,0 2.654701,0 0.688256,0 1.376511,0 2.064767,0 0.196644,0 0.393289,0 0.589933,0 0.09832,0 0.225443,-0.0695 0.294967,0 0.514822,0.51482 0.294967,1.52126 0.294967,2.06477 0,0.8849 0,1.7698 0,2.6547 0,0.8849 0.297624,1.82135 0,2.6547 -0.233836,0.65474 -0.896356,1.08918 -1.474834,1.47483 -0.882155,0.58811 -2.430836,1.06899 -3.539601,1.17987 -0.489171,0.0489 -0.983222,0 -1.474833,0 -0.589934,0 -1.179867,0 -1.769801,0 -0.491611,0 -1.074793,0.28574 -1.474833,0 -0.848272,-0.60591 -0.519594,-2.17593 -0.589934,-2.94967 -0.408115,-4.48926 -0.294967,1.17655 -0.294967,-3.83456 0,-0.58994 -0.143079,-1.19749 0,-1.7698 0.159969,-0.63988 0.501536,-1.23309 0.884901,-1.7698 0.127788,-0.17891 0.393289,-0.19665 0.589933,-0.29497 0.196645,-0.0983 0.37307,-0.25882 0.589934,-0.29497 0.387937,-0.0647 0.786578,0 1.179866,0 0.688256,0 1.376512,0 2.064768,0 0.498925,0 2.13695,-0.11923 2.6547,0.29497 0.24279,0.19423 0.196645,0.58993 0.294967,0.8849 0.512612,1.53784 0.294967,0.57398 0.294967,2.94967 0,0.68825 0.284802,1.4382 0,2.06476 -0.477554,1.05062 -2.342236,1.49214 -3.244634,1.7698 -0.684144,0.21051 -1.35525,0.49533 -2.064768,0.58994 -0.779678,0.10395 -1.573155,0 -2.359733,0 -0.688256,0 -1.376512,0 -2.064768,0 -0.645592,0 -3.330039,0.0834 -3.834567,-0.29497 -0.742056,-0.55654 -1.03833,-1.54129 -1.474834,-2.35973 -0.999906,-1.87483 -1.628484,-4.07456 -1.7698,-6.19431 -0.07848,-1.17725 0,-2.35973 0,-3.5396 0,-0.19664 0,-0.39329 0,-0.58993 0,-0.19664 -0.186554,-0.52775 0,-0.58993 0.55966,-0.18656 1.189382,0.10553 1.7698,0 0.520941,-0.0947 0.953893,-0.49522 1.474834,-0.58994 0.580418,-0.10553 1.179867,0 1.7698,0 0.393289,0 0.786578,0 1.179867,0 0.491611,0 0.983223,0 1.474834,0 1.376511,0 1.671478,-0.29496 2.654701,0.8849 0.46055,0.55266 0.294966,2.65735 0.294966,3.24464 0,0.39329 0,0.78658 0,1.17986 0,0.68826 0.279527,1.43584 0,2.06477 -0.32082,0.72185 -1.493402,0.58994 -2.064767,0.58994 -0.491611,0 -0.983222,0 -1.474834,0 -1.368835,0 -3.778514,0.17063 -5.014434,-0.58994 -0.603836,-0.37159 -0.862787,-1.13564 -1.179867,-1.7698 -0.346048,-0.69209 -0.792425,-2.41236 -0.8849,-3.24463 -0.04343,-0.39089 0,-0.78658 0,-1.17987 0,-0.19664 0,-0.39329 0,-0.58993 0,-0.29497 -0.131913,-0.62108 0,-0.8849 0.605936,-1.21188 1.756239,-1.10031 2.949667,-1.17987 0.784836,-0.0523 1.573156,0 2.359734,0 1.376511,0 2.753023,0 4.129534,0 0.393289,0 0.786578,0 1.179867,0 0.294967,0 0.595662,-0.0578 0.8849,0 0.215586,0.0431 0.491612,0.0983 0.589934,0.29497 0.131913,0.26382 0,0.58993 0,0.8849 0,0.49161 0,0.98322 0,1.47483 0,0.58993 0.169516,1.20475 0,1.7698 -0.412927,1.37643 -1.487467,1.40504 -2.654701,1.7698 -3.916584,1.22393 -2.110723,0.8849 -6.489268,0.8849 -1.179867,0 -2.359734,0 -3.539601,0 -0.8849,0 -1.833091,0.32865 -2.6547,0 -0.961089,-0.38443 -2.174875,-2.28498 -2.654701,-3.24463 -0.139049,-0.2781 -0.20955,-0.58594 -0.294967,-0.8849 -0.11137,-0.3898 -0.237635,-0.77855 -0.294966,-1.17987 -0.04171,-0.292 0,-0.58993 0,-0.8849 0,-0.49161 0,-0.98322 0,-1.47483 0,-0.19665 -0.163618,-0.48086 0,-0.58994 0.245427,-0.16362 0.591144,0.0267 0.8849,0 4.988572,-0.4535 -0.626738,-0.29496 6.194301,-0.29496 0.983223,0 1.966445,0 2.949668,0 0.294966,0 0.589933,0 0.8849,0 0.09832,0 0.263874,-0.0933 0.294967,0 0.09328,0.27983 0,0.58993 0,0.8849 0,0.29496 0,0.58993 0,0.8849 0,0.6882 0.148883,2.41704 -0.294967,2.94966 -0.281496,0.3378 -0.814006,0.34603 -1.179867,0.58994 -0.231391,0.15426 -0.341196,0.46556 -0.589934,0.58993 -0.175884,0.0879 -0.393289,0 -0.589933,0 -0.294967,0 -0.589934,0 -0.8849,0 -0.688256,0 -1.376512,0 -2.064767,0"
       id="path4840"
       inkscape:connector-curvature="0" />
  </g>
</svg>
